<svg xmlns="http://www.w3.org/2000/svg" xmlns:xlink="http://www.w3.org/1999/xlink" version="1.1" id="Layer_1" x="0px" y="0px" width="100px" height="99.708px" viewBox="5.0 -9.9708 100.0 134.6058" enable-background="new 0 0 100 99.708" xml:space="preserve">
<path fill="#010101" d="M53.255,49.721l0.021-0.018L53.255,49.721z"/>
<path fill="#010101" d="M99.607,44.312c0.326-9.157-3.153-14.892-5.91-17.961c-4.779-8.5-12.006-15.443-20.72-19.875  c-9.486-7.907-19.736-7.14-26.61-5.135C40.769,1.832,35.439,3.265,30.53,5.478c-7.042,1.41-10.074,4.688-11.374,7.124  C12.3,18.331,7.028,25.888,4.077,34.514c-5.998,9.5-4.079,17.302-2.367,21.157c1.192,11.207,6.161,21.3,13.602,28.989  c3.844,9.487,13.413,11.636,18.564,12.083c5.256,1.917,10.926,2.965,16.838,2.965c6.063,0,11.87-1.105,17.239-3.118  c17.899,2.397,22.335-14.951,22.912-17.636C96.607,70.895,100,61.051,100,50.423C100,48.353,99.856,46.315,99.607,44.312z   M21.067,15.481c0.131-0.239,0.329-0.454,0.591-0.642l0.167-0.119l6.16,0.773l0.12,0.27c0.02,0.041,0.452,1.042-0.077,2.005  c-0.065,0.115-0.141,0.229-0.226,0.332l-0.189,0.23l-6.237-0.961l-0.126-0.153C20.998,16.909,20.674,16.199,21.067,15.481z   M20.83,32.719c0.228-0.15,0.501-0.25,0.82-0.295l0.205-0.027l5.095,3.545l-0.019,0.295c-0.001,0.045-0.083,1.134-1,1.741  c-0.109,0.071-0.229,0.136-0.353,0.188l-0.274,0.116l-5.079-3.747l-0.041-0.195C20.104,33.95,20.147,33.171,20.83,32.719z   M4.478,59.901c7.329,9.336,9.343,18.696,9.343,18.696c0.056,0.51,0.132,0.992,0.213,1.476C9.366,74.309,6.019,67.43,4.478,59.901z   M7.49,45.365l2.496-5.682l0.293-0.039c0.044-0.008,1.128-0.136,1.901,0.646c0.092,0.093,0.178,0.2,0.252,0.309l0.167,0.247  l-2.697,5.707l-0.182,0.076c-0.368,0.153-1.14,0.263-1.715-0.32c-0.192-0.194-0.342-0.442-0.448-0.748L7.49,45.365z M10.658,26.652  c-0.55,0.523-1.071,1.044-1.569,1.561c2.361-4.406,5.402-8.388,8.978-11.819C17.14,20.245,10.658,26.652,10.658,26.652z   M18.672,58.879l-0.194-0.041c-0.391-0.084-1.089-0.429-1.236-1.232c-0.049-0.271-0.032-0.558,0.053-0.871l0.055-0.198l5.266-3.285  l0.264,0.132c0.04,0.019,1.008,0.526,1.206,1.607c0.023,0.127,0.034,0.266,0.033,0.397v0.299L18.672,58.879z M29.119,79.86  c-0.062,0.112-0.139,0.228-0.225,0.33l-0.188,0.23l-6.242-0.95l-0.125-0.153c-0.252-0.309-0.578-1.017-0.184-1.734  c0.131-0.239,0.326-0.455,0.589-0.644l0.167-0.12l6.159,0.766l0.122,0.269C29.215,77.893,29.646,78.896,29.119,79.86z   M70.992,28.821c0.034-0.027,0.931-0.652,1.979-0.327c0.127,0.038,0.252,0.09,0.371,0.154l0.263,0.138l0.312,6.303l-0.126,0.154  c-0.251,0.31-0.881,0.769-1.662,0.527c-0.261-0.081-0.509-0.231-0.746-0.45l-0.149-0.138l-0.482-6.189L70.992,28.821z   M56.588,26.079l0.056-0.197l5.255-3.304l0.265,0.133c0.041,0.019,1.01,0.521,1.212,1.599c0.022,0.13,0.036,0.268,0.034,0.4v0.297  l-5.436,3.208l-0.194-0.039c-0.391-0.076-1.092-0.422-1.241-1.227C56.489,26.683,56.507,26.392,56.588,26.079z M46.723,7.787  c0.137-0.237,0.338-0.446,0.605-0.628l0.17-0.116l6.139,0.919l0.115,0.273c0.019,0.041,0.427,1.052-0.126,2.003  c-0.065,0.114-0.145,0.225-0.233,0.326l-0.192,0.226l-6.212-1.107l-0.124-0.157C46.62,9.211,46.313,8.495,46.723,7.787z   M50.367,40.612c5.901,0,10.703,4.802,10.703,10.702c0,5.902-4.802,10.707-10.703,10.707c-5.903,0-10.705-4.805-10.705-10.707  C39.662,45.414,44.464,40.612,50.367,40.612z M48.923,82.325l6.07-1.309l0.2,0.213c0.033,0.031,0.772,0.835,0.593,1.919  c-0.023,0.127-0.057,0.258-0.103,0.385l-0.101,0.28l-6.208,1.163l-0.168-0.105c-0.338-0.206-0.879-0.769-0.744-1.577  c0.043-0.268,0.156-0.536,0.343-0.804L48.923,82.325z M48.846,66.093l0.051-0.29c0.004-0.045,0.205-1.117,1.178-1.627  c0.117-0.058,0.244-0.11,0.372-0.148l0.283-0.084l4.656,4.265l0.017,0.195c0.039,0.397-0.083,1.168-0.814,1.544  c-0.24,0.129-0.521,0.196-0.848,0.205l-0.206,0.01L48.846,66.093z M39.489,21.638l0.054-0.197l5.248-3.317l0.265,0.132  c0.042,0.018,1.011,0.518,1.215,1.597c0.023,0.131,0.035,0.268,0.035,0.4v0.298l-5.426,3.22l-0.195-0.038  c-0.389-0.078-1.09-0.42-1.243-1.224C39.391,22.242,39.406,21.951,39.489,21.638z M36.003,35.404l0.26-0.141  c0.039-0.022,1.004-0.531,2.005-0.079c0.119,0.055,0.239,0.123,0.348,0.199l0.244,0.172l-0.472,6.292l-0.143,0.138  c-0.287,0.275-0.969,0.654-1.716,0.317c-0.248-0.111-0.477-0.29-0.687-0.539l-0.131-0.158L36.003,35.404z M34.028,69.265  c-0.016-0.399,0.149-1.16,0.898-1.495c0.247-0.114,0.531-0.17,0.857-0.16l0.205,0.005l4.461,4.316l-0.066,0.284  c-0.006,0.046-0.265,1.105-1.265,1.558c-0.119,0.051-0.249,0.096-0.379,0.13l-0.289,0.074l-4.414-4.516L34.028,69.265z   M37.525,87.074c0.022-0.04,0.66-0.926,1.758-0.971c0.13-0.003,0.268,0.004,0.399,0.023l0.294,0.041l2.398,5.845l-0.068,0.182  c-0.133,0.376-0.574,1.02-1.395,1.051c-0.271,0.01-0.555-0.046-0.854-0.175l-0.188-0.079l-2.514-5.678L37.525,87.074z   M50.714,97.616c-3.858,0-7.606-0.476-11.199-1.354c8.388-1.749,22.601-1.022,22.601-1.022c0.591,0.191,1.16,0.35,1.728,0.505  C59.672,96.954,55.27,97.616,50.714,97.616z M64.529,15.868c-0.385-0.098-1.066-0.477-1.175-1.288  c-0.036-0.27-0.005-0.56,0.094-0.868l0.065-0.195l5.418-3.03l0.257,0.147c0.04,0.021,0.981,0.571,1.127,1.66  c0.019,0.131,0.023,0.269,0.016,0.401l-0.018,0.298l-5.593,2.924L64.529,15.868z M71.386,87.605  c-0.008,0.397-0.218,1.148-0.987,1.44c-0.251,0.099-0.539,0.137-0.865,0.11l-0.202-0.02l-4.199-4.572l0.083-0.282  c0.009-0.045,0.329-1.089,1.353-1.483c0.122-0.043,0.254-0.076,0.386-0.105l0.294-0.055l4.142,4.769L71.386,87.605z M71.848,70.948  l-0.169,0.105c-0.335,0.213-1.077,0.454-1.744-0.021c-0.226-0.156-0.414-0.376-0.574-0.661l-0.096-0.179l1.474-6.03l0.28-0.086  c0.043-0.019,1.088-0.33,1.986,0.304c0.104,0.077,0.207,0.168,0.301,0.261l0.208,0.216L71.848,70.948z M76.644,50.666  c-0.002,0.045-0.148,1.129-1.096,1.687c-0.113,0.06-0.236,0.119-0.361,0.163l-0.281,0.104l-4.868-4.029l-0.025-0.198  c-0.056-0.393,0.027-1.167,0.738-1.58c0.237-0.139,0.512-0.223,0.84-0.251l0.201-0.015l4.886,3.828L76.644,50.666z M78.61,12.39  c3.914,2.879,7.366,6.347,10.231,10.27c-4.187-2.576-8.632-8.057-8.632-8.057C79.682,13.826,79.149,13.091,78.61,12.39z   M83.084,26.476l-2.285-5.772l0.18-0.235c0.026-0.037,0.696-0.897,1.795-0.897c0.132,0,0.268,0.013,0.399,0.039l0.292,0.055  l2.158,5.93l-0.074,0.185c-0.148,0.369-0.615,0.994-1.434,0.994c-0.272,0-0.555-0.07-0.847-0.208L83.084,26.476z M87.75,70.933  c-0.18,0.352-0.697,0.936-1.516,0.861c-0.271-0.023-0.547-0.117-0.829-0.282l-0.173-0.105l-1.771-5.95l0.199-0.216  c0.024-0.033,0.771-0.832,1.866-0.739c0.127,0.015,0.266,0.041,0.391,0.074l0.286,0.079l1.637,6.099L87.75,70.933z M86.712,50.449  l-0.196-0.04c-0.387-0.069-1.095-0.399-1.258-1.205c-0.055-0.268-0.047-0.556,0.03-0.873l0.05-0.197l5.193-3.399l0.265,0.127  c0.044,0.016,1.021,0.502,1.249,1.578c0.018,0.126,0.033,0.263,0.036,0.395l0.009,0.3L86.712,50.449z M90.977,75.015  c0.882-6.12,4.933-14.83,4.933-14.83c0.688-1.708,1.268-3.342,1.75-4.919C96.926,62.444,94.571,69.151,90.977,75.015z"/>
<text x="0.0" y="117.1569" font-size="4.9854" font-weight="bold" font-family="Helvetica Neue, Helvetica, Arial-Unicode, Arial, Sans-serif" fill="#000000">Created by Julia Soderberg</text><text x="0.0" y="122.1423" font-size="4.9854" font-weight="bold" font-family="Helvetica Neue, Helvetica, Arial-Unicode, Arial, Sans-serif" fill="#000000">from the Noun Project</text></svg>